<svg xmlns="http://www.w3.org/2000/svg" viewBox="18.0 7.0 1132.0 198.0"><defs></defs><path fill="#F1F6FB" d="M244 192.49C230.39 191.08 223.26 188.89 213.25 183.01C208.65 180.3 207.18 179.21 204.03 176.14C194.72 167.08 189.51 156.37 187.72 142.62C187.01 137.16 187.15 72.55 187.88 69.88C188.89 66.17 192.63 61.69 196.22 59.89C206.93 54.51 220.18 60.21 221.9 70.96C221.99 71.54 222.08 86.55 222.1 104.32L222.12 136.62L222.7 139.5C225.2 151.98 230.68 158.64 241.4 162.23C248.17 164.5 258.25 164.46 264.25 162.14C274.16 158.31 279.58 152.43 282.7 142.12C284.5 136.19 284.48 136.59 284.58 102.38C284.66 71.93 284.66 71.87 285.2 70.25C286.54 66.2 290.18 61.71 293.3 60.25C304.14 55.18 315.58 59.71 318.26 70.12C318.76 72.11 318.77 72.41 318.62 103C318.53 119.98 318.36 135.17 318.24 136.75C317.14 150.74 313.75 160.38 306.6 169.81C305.11 171.78 299.12 177.77 297.12 179.29C283.27 189.84 264.21 194.58 244 192.49ZM97.5 192.35C80.67 190.87 70.66 187.87 56.99 180.21C43.81 172.82 32.34 159.5 28.02 146.55C21.27 126.37 23.52 108.14 34.87 91C40 83.25 45.54 77.54 53.31 72C63.07 65.04 69.82 61.88 81.88 58.63C100.89 53.51 122.21 55.42 141.25 63.95C143.24 64.84 145.1 65.71 145.38 65.87C145.65 66.04 147.06 66.83 148.5 67.63C154.72 71.09 158.33 74.19 159.95 77.47C160.85 79.29 160.87 79.43 160.86 81.99C160.83 86.07 159.91 87.84 155.51 92.28C151.24 96.58 148.87 97.61 143.62 97.44C139.6 97.3 138.54 96.93 135.25 94.48C125.16 86.98 116.96 84.39 103.25 84.4C94.78 84.4 91.29 84.98 85.12 87.42C75.43 91.24 67.52 98.5 62.9 107.82C59.88 113.89 58.73 123.96 60.24 130.99C62.35 140.82 67.5 148.71 75.88 154.96C88.21 164.18 107.91 166.35 123.36 160.2C129.75 157.66 129.25 158.55 129.25 149.77C129.25 141.85 129.37 142.15 126 141.77C118.22 140.89 114.78 136.34 115.97 128.5C116.66 123.99 119.86 120.53 124.28 119.52C125.68 119.19 151.02 119.17 153.23 119.49C156.6 119.98 160.19 122.7 161.7 125.92L162.38 127.38L162.38 148L162.38 168.62L161.72 170.01C160.89 171.8 159.85 172.96 157.5 174.75C153.13 178.08 151.37 179.05 140.62 184.06C136.63 185.93 129.79 188.42 126.12 189.34C118.26 191.32 103.46 192.87 97.5 192.35ZM516.75 192C513.34 191.08 510.36 189.16 508.51 186.68C506.86 184.48 503.09 176.61 498.55 165.9C497.81 164.15 499.81 164.25 466.42 164.25L436.32 164.25L435.72 164.85C435.39 165.18 434.79 166.22 434.39 167.16C433.98 168.1 432.45 171.35 430.98 174.38C429.52 177.4 427.69 181.17 426.94 182.75C423.32 190.3 414.85 193.84 405.41 191.75C397.27 189.95 392.51 183.89 394.02 177.25C394.32 175.89 396.22 171.79 398.59 167.38C400.35 164.1 405.67 153.71 408.19 148.63C408.94 147.11 410.16 144.85 410.9 143.59C411.64 142.33 412.25 141.23 412.25 141.14C412.25 140.88 418.11 129.25 419.52 126.72C420.23 125.43 422.34 121.34 424.2 117.62C426.06 113.91 428.14 109.86 428.84 108.62C429.54 107.39 431.13 104.35 432.39 101.88C433.64 99.4 435.68 95.46 436.92 93.12C441.15 85.15 444.32 79.13 446.86 74.25C450.18 67.87 451.18 66.35 453.32 64.36C455.48 62.36 459.06 60.52 462.25 59.76C465 59.11 471.76 59.04 474.67 59.64C478.76 60.49 483.11 63.26 485.27 66.4C485.86 67.26 496.63 88.5 499.15 93.76C499.57 94.65 501.27 97.96 502.92 101.12C504.57 104.29 506.35 107.83 506.89 109C507.43 110.17 509.74 114.84 512.04 119.38C514.33 123.91 516.83 129.04 517.59 130.76C518.35 132.49 519.45 134.74 520.03 135.76C520.61 136.79 522.35 140.27 523.89 143.5C525.43 146.73 528.06 152.19 529.74 155.62C531.41 159.06 533.44 163.22 534.24 164.88C535.03 166.53 536.48 169.51 537.46 171.5C539.71 176.13 540.1 177.49 539.93 180.11C539.61 185.04 536.12 189.48 530.96 191.52L528.88 192.35L523.75 192.42C519.26 192.49 518.39 192.44 516.75 192ZM355.6 191.38C349.04 189.86 344.97 185.94 343.38 179.62C342.65 176.75 343.05 73.22 343.79 70.77C346.18 62.9 352.19 58.7 361.12 58.65C368.85 58.61 374.18 61.98 376.78 68.57L377.59 70.62L377.54 111.75C377.48 163.83 377.33 178.09 376.83 180.12C374.71 188.7 365.38 193.64 355.6 191.38ZM485.37 137.76C486.05 137.01 485.72 136.1 481.88 128C480.73 125.59 479.1 122.11 478.25 120.25C477.39 118.39 476.16 115.75 475.5 114.38C474.84 113 473.89 110.88 473.39 109.67C472.89 108.45 472.11 106.71 471.65 105.79C471.19 104.87 470.4 103.13 469.89 101.91C467.15 95.27 466.57 95.29 463.99 102.12C463.47 103.5 461.84 107.1 460.37 110.12C458.9 113.15 457.36 116.47 456.96 117.5C456.25 119.28 451.11 129.96 448.99 134.03C448 135.94 447.74 137.31 448.3 137.66C449.06 138.13 451.42 138.19 467.65 138.22C484.51 138.25 484.93 138.24 485.37 137.76Z"/><path fill="#57BEEC" d="M807.62 198.86C785.83 197.31 767.69 190.92 751.01 178.9C744.12 173.94 736.01 164.2 731.63 155.62C722.66 138.04 722.05 119.41 729.89 101.88C734.2 92.22 743.4 80.9 751.38 75.44C752.2 74.88 753.49 73.94 754.25 73.36C755.55 72.36 760.54 69.49 763.94 67.78C773.34 63.05 784.04 60.29 797.12 59.24C810.73 58.14 829.19 62.85 842.38 70.77C852.4 76.8 862.06 86.88 866.69 96.14C873.94 110.62 875.78 122.77 873.11 138.38C872.23 143.51 869.71 150.39 867.27 154.34C866.62 155.39 864.72 156.38 862.88 156.62C862.19 156.71 860.5 157.16 859.12 157.63C856.69 158.45 853.74 159.1 844.75 160.8L840.38 161.62L830.95 161.62C822.26 161.62 821.48 161.59 821.08 161.18C820.42 160.53 820.78 160.14 823.96 158C831.74 152.77 835.98 146.73 838.77 136.87C842.73 122.87 839.03 109.21 828.39 98.62C820.43 90.71 810.51 87.15 797.62 87.59C789.03 87.89 783.62 89.75 775.8 95.12C762.33 104.36 756.28 121.23 760.87 136.75C763.78 146.61 767.74 152.07 776.24 157.95C782.04 161.97 786.99 164.26 794.4 166.33C799.57 167.77 798.67 167.59 806.52 168.73C824.77 171.35 840 170.46 860.22 165.58C863.75 164.73 876.47 160.35 884.25 157.31C891.15 154.62 905.45 147.39 910.12 144.24C911.09 143.59 912.38 142.75 913 142.37C914.78 141.28 922.83 135.15 926.11 132.39C931.43 127.91 940.47 119.18 944.21 114.9C946.16 112.67 947.15 111.44 950.83 106.75C951.42 105.99 952.73 104.19 953.74 102.75C954.76 101.31 956.17 99.34 956.89 98.38C957.61 97.41 959.02 95.33 960.01 93.75C961 92.17 962.45 89.92 963.24 88.75C965.49 85.42 968.41 80.46 970.44 76.5C971.46 74.51 972.73 72.15 973.25 71.25C974.34 69.38 978.68 60.26 978.9 59.35C979.29 57.8 978.36 57.02 975.62 56.64C966.24 55.32 962.86 52.21 965.39 47.22C965.95 46.11 972.34 40.24 981.13 32.75C982.34 31.72 984.36 29.98 985.62 28.88C986.88 27.77 988.86 26.12 990.02 25.2C991.18 24.27 994.21 21.71 996.75 19.5C1004.25 12.98 1007.45 11.53 1010.71 13.15C1012.36 13.98 1013.3 15.31 1014.14 18.04C1014.49 19.19 1015.68 22.6 1016.79 25.62C1017.89 28.65 1019.42 32.87 1020.18 35C1020.94 37.13 1021.9 39.77 1022.31 40.88C1022.73 41.98 1023.55 44.28 1024.15 46C1024.74 47.72 1025.75 50.59 1026.38 52.38C1029.74 61.82 1030.02 63.14 1029.16 65.68C1028.56 67.45 1026.97 68.86 1025.11 69.27C1023.16 69.71 1021.01 69.28 1016.26 67.5C1010.68 65.4 1010.71 65.4 1009.36 68.94C1007.02 75.06 1003.09 84.09 1001.07 88C1000.32 89.44 999.11 91.97 998.38 93.62C997.65 95.28 996.18 98.48 995.13 100.75C994.07 103.02 992.89 105.66 992.5 106.62C991.69 108.64 987.92 117.06 984.88 123.62C983.74 126.1 981.82 130.32 980.62 133C979.42 135.68 977.6 139.68 976.57 141.88C975.54 144.07 974.49 146.38 974.25 147C974 147.62 973.05 149.7 972.13 151.62C971.22 153.55 969.78 156.7 968.95 158.62C968.12 160.55 967.13 162.74 966.75 163.5C966.37 164.26 965.66 165.83 965.18 167C964.7 168.17 963.52 170.76 962.56 172.75C961.6 174.74 960.22 177.84 959.5 179.62C956.91 186.07 955.26 188.9 953.21 190.4C947.64 194.49 939.61 195.22 933.85 192.15C929.08 189.61 926.75 186.93 924.35 181.25C921.28 173.95 920.86 173.25 919.57 173.25C919.31 173.25 916.75 174.38 913.86 175.76C910.98 177.15 907.33 178.82 905.75 179.49C904.17 180.16 901.36 181.35 899.5 182.13C895.55 183.79 880.71 188.91 876.38 190.11C866.86 192.73 864.82 193.27 861.88 193.97C843.68 198.28 824.19 200.04 807.62 198.86ZM1076.19 194.75L1039.5 194.56L1037.72 193.99C1034.27 192.88 1030.84 190.13 1029.49 187.38C1027.74 183.79 1027.78 189.76 1028.72 90.25L1028.88 73.88L1029.81 71.91C1031.8 67.74 1034.86 64.83 1038.75 63.39C1040.27 62.82 1069.9 62.66 1114.12 62.99L1133.12 63.13L1134.7 63.85C1144.88 68.55 1146.13 82.29 1136.92 88.27C1133.84 90.28 1137.09 90.12 1098.32 90.12L1063.77 90.12L1063.2 90.69L1062.62 91.26L1062.55 101.57C1062.47 113.06 1062.45 112.83 1063.57 113.51C1064.36 113.99 1064.97 114 1090.75 114C1119.28 114 1119.34 114.01 1122.15 115.38C1124.29 116.42 1127.23 119.34 1128.14 121.34C1131.16 127.93 1128.6 136.77 1122.81 139.72C1119.97 141.17 1120.84 141.13 1091.43 141.05C1063.43 140.97 1063.05 140.98 1062.5 141.99C1062.36 142.26 1062.23 147.02 1062.19 153.54C1062.12 165.75 1062.11 165.67 1063.65 166.26C1064.04 166.41 1077.35 166.5 1098.46 166.5C1128.32 166.5 1132.83 166.55 1134.11 166.88C1140.08 168.44 1144.25 174.03 1144.25 180.49C1144.25 186.4 1140.1 192.39 1134.62 194.4C1133.05 194.97 1127.61 195.01 1076.19 194.75ZM686.88 193.29C681.52 191.67 677.82 188.17 676.11 183.12L675.43 181.12L675.46 163C675.48 153.03 675.57 140.6 675.66 135.38C675.91 120.14 675.59 120.06 667.62 133.38C666.55 135.16 664.86 137.86 663.87 139.38C662.87 140.89 660.73 144.38 659.1 147.12C657.48 149.88 655.37 153.36 654.41 154.88C653.46 156.39 652.23 158.4 651.69 159.35C651.14 160.3 649.1 163.51 647.15 166.48C645.2 169.45 643.35 172.29 643.03 172.81C640.81 176.45 634.39 179.57 630 179.13C623.68 178.49 619.73 176.08 616.7 171.03C615.99 169.84 614.27 167.07 612.87 164.88C611.48 162.68 610.01 160.31 609.62 159.62C608.54 157.72 605.42 152.53 603.01 148.62C601.82 146.7 600.47 144.51 600.01 143.75C599.55 142.99 598.45 141.19 597.56 139.75C594.47 134.75 593.8 133.61 592.38 131C588.2 123.3 586.56 121.49 585.74 123.65C585.57 124.09 585.45 134.27 585.39 152.49L585.3 180.65L584.68 182.45C583.39 186.15 580.27 189.78 576.88 191.54C568.84 195.69 558.06 191.66 554.95 183.36C554.2 181.36 554.08 167.88 554.48 130.88C554.63 116.16 554.81 97.21 554.87 88.75C554.99 71.47 554.99 71.47 556.86 68.12C561.3 60.16 572.87 57.21 581.6 61.83C585.23 63.74 587.86 66.75 592.21 73.92C592.95 75.13 594.38 77.42 595.38 79C597.93 83 600.49 87.14 602.44 90.38C603.34 91.89 604.78 94.25 605.63 95.62C606.48 97 607.66 98.91 608.26 99.88C611.03 104.37 613.51 108.45 615.63 112C616.9 114.13 618.93 117.51 620.14 119.5C621.35 121.49 622.92 124.14 623.64 125.38C626.09 129.64 628.95 134.38 629.47 135.03C630.71 136.6 631.47 136.12 634.02 132.13C635.04 130.54 636.48 128.31 637.21 127.18C637.95 126.05 639.82 123.1 641.36 120.62C644.39 115.77 648.12 109.95 652.63 103C654.19 100.59 656.73 96.66 658.26 94.25C659.8 91.84 661.66 88.97 662.38 87.88C677.42 65.03 676.87 65.77 680.54 63.35C684.19 60.95 687.27 60.14 692.12 60.31C698.4 60.54 703.23 63.22 706.53 68.32C708.44 71.28 708.32 67.12 708.13 125C707.96 177.14 707.89 181.26 707.1 183.27C706.53 184.71 704.21 188.47 703.46 189.16C702.49 190.06 698.49 192.47 697.01 193.04C695.04 193.81 689.09 193.96 686.88 193.29ZM903.88 138.7C903.6 138.54 903.23 138.23 903.06 138.02C902.77 137.67 898.5 129.1 898.5 128.88C898.5 128.83 898.01 127.74 897.4 126.46C896.8 125.17 895.5 122.33 894.51 120.12C893.53 117.92 892.47 115.62 892.15 115C891.84 114.38 891.24 113.2 890.82 112.38C890.39 111.55 889.46 109.58 888.74 108C886.03 102.04 880.95 91.3 879.98 89.5C875.15 80.54 874.34 78.05 874.95 74.08C875.69 69.3 878.38 65.78 883.18 63.31C886.9 61.4 888.07 61.15 893.38 61.14C899.68 61.12 903.25 62.47 907.14 66.36C909.25 68.47 909.6 69.14 915.25 81.88C916.68 85.1 917.46 86.81 919.5 91.12C920.08 92.36 921.21 94.89 922.01 96.75C922.8 98.61 924.18 101.59 925.08 103.38C927.25 107.74 930.69 115.56 930.89 116.6C931.11 117.79 930.63 118.54 928.08 121.01C921.61 127.27 916.24 131.64 909.12 136.43C905.39 138.94 904.77 139.21 903.88 138.7Z"/><path fill="#43BBF7" d="M687.97 193.42C687.07 193.08 683.73 191.29 683.5 191.02C683.43 190.94 682.74 190.46 681.97 189.95C679.19 188.14 677.4 185.92 676.47 183.12C676.21 182.33 676.11 176.42 676 153.88C675.85 124.59 675.83 124.03 674.83 123.64C674.08 123.36 671.29 126.78 669.26 130.5C667.6 133.53 665.61 136.67 664.52 137.99C664 138.61 663.25 139.63 662.85 140.25C662.45 140.87 662.06 141.43 661.97 141.5C661.89 141.57 661 143.14 660 145C659 146.86 658.1 148.43 658 148.5C657.9 148.57 657 150.14 656 152C655 153.86 654.11 155.43 654.02 155.5C653.93 155.57 653.36 156.47 652.76 157.5C651.58 159.51 649.42 162.96 649.07 163.38C648.96 163.51 648.48 164.24 648 165C647.52 165.76 647.04 166.49 646.93 166.62C646.83 166.76 646.09 167.94 645.31 169.23C641.47 175.55 635.57 179.38 630.4 178.9C624.26 178.33 619.07 174.78 616.03 169.07C615.05 167.23 613.92 165.5 613.08 164.6C612.34 163.79 611.15 162.11 610.44 160.88C609.74 159.64 608.86 158.18 608.5 157.62C608.13 157.07 607.06 155.12 606.11 153.28C605.17 151.44 604.28 149.81 604.13 149.66C603.99 149.5 603.48 148.76 603 148C602.53 147.24 602.08 146.57 602 146.5C601.92 146.43 601.47 145.76 601 145C600.52 144.24 600.04 143.51 599.93 143.38C599.66 143.06 597.78 140.15 597.09 139C596.81 138.52 595.95 137.11 595.2 135.88C594.44 134.64 593.03 132.09 592.06 130.2C591.09 128.32 590.17 126.64 590.02 126.45C589.86 126.27 589.23 125.43 588.63 124.58C586.83 122.07 586.05 122.18 585.4 125.04C585.05 126.6 585 129.98 585 153.84C584.99 182.72 585.02 181.99 583.76 184.5C582.9 186.2 582.11 187.16 580.65 188.23C579.93 188.76 578.9 189.62 578.36 190.13C575.35 192.97 569.72 193.8 564.88 192.13C563.1 191.51 560.85 190.42 560.5 190C560.43 189.92 559.96 189.6 559.45 189.29C555.57 186.93 553.22 178.61 554.65 172.28C555.02 170.64 555.02 170.36 554.65 168.72C554.13 166.4 554.05 145.44 554.56 144C554.8 143.33 554.9 134.95 555 108L555.12 72.88L555.84 70.88C556.86 68.06 557.55 66.98 559.77 64.77C563.5 61.03 565.95 60.13 572.38 60.13C578.92 60.12 581.7 61.27 586.35 65.88C588.45 67.97 589.22 69 591.49 72.75C594.1 77.04 596.36 80.66 597.77 82.77C598.65 84.09 599.77 85.87 600.25 86.72C601.23 88.45 605.44 95.38 607.24 98.25C607.9 99.28 609.08 101.19 609.87 102.5C610.67 103.81 612.02 106.01 612.88 107.39C613.74 108.77 614.75 110.52 615.13 111.26C615.51 112.01 616.51 113.69 617.36 115C618.21 116.31 619.9 119.06 621.12 121.12C622.33 123.19 623.83 125.72 624.44 126.75C625.06 127.78 626.35 129.97 627.32 131.62C630.54 137.11 630.71 137.13 633.9 132.42C636.66 128.33 637.8 126.79 639.22 125.26C640.07 124.34 641.16 122.59 642.55 119.9C643.69 117.71 644.74 115.79 644.88 115.64C645.02 115.5 645.52 114.76 646 114C646.47 113.24 646.93 112.57 647.01 112.5C647.09 112.43 647.76 111.31 648.5 110C649.24 108.69 649.91 107.57 649.99 107.5C650.07 107.43 650.53 106.76 651 106C651.47 105.24 651.92 104.57 652 104.5C652.08 104.43 652.53 103.76 653 103C653.47 102.24 653.92 101.57 654 101.5C654.08 101.43 654.53 100.76 655 100C655.47 99.24 655.92 98.57 656 98.5C656.08 98.43 656.53 97.76 657 97C657.47 96.24 657.92 95.57 658 95.5C658.08 95.43 658.53 94.76 659 94C659.47 93.24 659.93 92.57 660.01 92.5C660.09 92.43 660.76 91.31 661.5 90C662.24 88.69 662.91 87.57 662.99 87.5C663.07 87.43 663.53 86.76 664 86C664.47 85.24 664.93 84.57 665.01 84.5C665.09 84.43 665.76 83.31 666.51 82C667.25 80.69 667.95 79.51 668.06 79.38C668.17 79.24 668.89 78.11 669.65 76.88C670.41 75.64 671.47 74.06 671.99 73.38C672.51 72.69 673.14 71.79 673.4 71.38C673.65 70.96 673.92 70.57 673.99 70.5C674.07 70.43 674.55 69.73 675.07 68.93C677.16 65.74 681.9 62.4 685.84 61.35C687.68 60.86 695.35 60.88 697.48 61.39C701.87 62.42 706.58 67.15 707.62 71.56C708.04 73.33 708.18 174.46 707.77 179.4C707.57 181.79 707.49 182.07 706.14 184.69C703.88 189.11 702.82 190.13 698.01 192.47L695.65 193.62L692.26 193.69C689.89 193.74 688.61 193.66 687.97 193.42Z"/><path fill="#3DB4F8" d="M863.84 190.74C862.83 190.43 862.64 190.17 861.95 188.25C861.44 186.85 861.16 186.48 859.56 185.14C858.57 184.31 857.19 182.89 856.5 182C854.07 178.85 853.7 178.48 851.77 177.37C848.26 175.34 847.5 174.31 847.5 171.51C847.5 169.41 848.12 168.72 850.43 168.24C853.49 167.6 855.89 168.22 858.1 170.22C859.73 171.7 859.7 171.7 861 170.88C862.01 170.24 862.26 169.93 863.32 168.01C863.75 167.24 864.27 166.73 865.03 166.35C865.63 166.05 866.86 165.44 867.75 165C868.64 164.56 869.43 164.11 869.5 164.01C870.3 162.83 877.3 159.71 882.93 158.02C886.84 156.85 892.05 154.64 892.51 153.97C892.58 153.86 894.89 152.61 897.63 151.18C904.58 147.56 908.08 145.61 910.12 144.24C911.09 143.59 912.38 142.75 913 142.37C914.78 141.28 922.83 135.15 926.11 132.39C931.43 127.91 940.47 119.18 944.21 114.9C946.16 112.67 947.15 111.44 950.83 106.75C951.42 105.99 952.73 104.19 953.74 102.75C954.76 101.31 956.17 99.34 956.89 98.38C957.61 97.41 959.02 95.33 960.01 93.75C961 92.17 962.45 89.92 963.24 88.75C965.51 85.4 968.41 80.45 970.5 76.38C971.57 74.31 973.24 71.28 974.22 69.63C975.21 67.99 976.17 66.13 976.36 65.51C976.54 64.88 977.22 63.24 977.85 61.85C979.07 59.16 979.23 58.27 978.61 57.65C978.19 57.23 977.93 57.15 973.16 56.01C968.47 54.88 967.04 54.02 966.1 51.78C965.6 50.58 965.66 48.26 966.22 46.96C966.87 45.45 970.95 41.4 975.75 37.5C976.51 36.88 977.53 35.98 978.03 35.5C978.52 35.02 979.92 33.78 981.13 32.75C982.34 31.72 984.24 30.07 985.35 29.09C986.46 28.12 988.41 26.48 989.68 25.47C990.95 24.46 993.8 22.05 996.02 20.12C998.25 18.2 1000.58 16.29 1001.22 15.88C1001.85 15.47 1002.43 15.07 1002.5 14.99C1003.99 13.3 1009.47 12.69 1011.33 14.01C1012.77 15.03 1013.71 16.43 1014.26 18.35C1014.54 19.32 1015.67 22.6 1016.78 25.62C1017.89 28.65 1019.42 32.87 1020.18 35C1020.94 37.13 1021.9 39.77 1022.31 40.88C1022.73 41.98 1023.55 44.28 1024.15 46C1024.74 47.72 1025.75 50.59 1026.38 52.38C1029.01 59.74 1029.05 59.9 1028.93 62.5C1028.74 66.89 1026.95 68.72 1022.63 68.94L1020.38 69.05L1016.33 67.53C1010.68 65.4 1010.71 65.39 1009.36 68.94C1006.75 75.76 1004.18 81.64 1000.76 88.62C999.55 91.1 998.08 94.23 997.5 95.58C996.91 96.93 996.31 98.17 996.15 98.33C996 98.49 995.55 99.13 995.14 99.75C994.74 100.37 993.93 101.49 993.34 102.25C991.25 104.92 989.97 106.64 989.05 108C988.54 108.76 988.07 109.43 987.99 109.5C987.92 109.57 987.47 110.24 987 111C986.53 111.76 986.08 112.43 986 112.5C985.92 112.57 985.47 113.24 985 114C984.53 114.76 984.08 115.43 984.01 115.5C983.93 115.57 983.46 116.24 982.95 117C982.03 118.36 980.75 120.08 978.66 122.75C978.07 123.51 977.26 124.63 976.86 125.25C976.46 125.87 976.07 126.43 976 126.5C975.93 126.57 975.47 127.24 974.97 128C974.47 128.76 973.58 129.88 973 130.5C972.42 131.12 971.5 132.28 970.95 133.09C969.63 135.01 953.97 150.66 952.06 151.96C951.25 152.51 949.65 153.88 948.51 154.99C947.37 156.11 945.92 157.37 945.28 157.8C944.65 158.23 943.62 159 943 159.51C942.38 160.01 941.37 160.75 940.75 161.15C940.13 161.55 939.57 161.93 939.5 162.01C939.43 162.08 938.76 162.53 938 163C937.24 163.47 936.57 163.92 936.5 164C936.43 164.08 935.76 164.53 935 165C934.24 165.48 933.48 166 933.31 166.17C932.67 166.78 910.99 177.31 906.62 179.13C906.08 179.36 903.26 180.53 900.38 181.74C897.49 182.94 893.55 184.43 891.62 185.06C889.7 185.68 887 186.56 885.62 187.01C883.33 187.75 882.75 187.84 878.62 188.01C873.46 188.22 873.52 188.21 870.92 189.7C868.82 190.9 865.79 191.35 863.84 190.74Z"/></svg>